<mxfile host="app.diagrams.net" agent="Mozilla/5.0 (Windows NT 10.0; Win64; x64) AppleWebKit/537.36 (KHTML, like Gecko) Chrome/129.0.0.0 Safari/537.36" version="24.8.0">
  <diagram name="Trang-1" id="vXn5dJ1ZpUDf_ZWZ_znD">
    <mxGraphModel dx="1434" dy="818" grid="1" gridSize="10" guides="1" tooltips="1" connect="1" arrows="1" fold="1" page="1" pageScale="1" pageWidth="827" pageHeight="1169" math="0" shadow="0">
      <root>
        <mxCell id="0" />
        <mxCell id="1" parent="0" />
        <mxCell id="f0RbP7yOVQny-Da1AAYZ-13" style="edgeStyle=orthogonalEdgeStyle;rounded=0;sketch=1;hachureGap=4;jiggle=2;curveFitting=1;orthogonalLoop=1;jettySize=auto;html=1;entryX=0;entryY=0.5;entryDx=0;entryDy=0;fontFamily=Architects Daughter;fontSource=https%3A%2F%2Ffonts.googleapis.com%2Fcss%3Ffamily%3DArchitects%2BDaughter;textShadow=1;fontSize=16;" parent="1" source="f0RbP7yOVQny-Da1AAYZ-10" target="f0RbP7yOVQny-Da1AAYZ-12" edge="1">
          <mxGeometry relative="1" as="geometry">
            <Array as="points">
              <mxPoint x="66" y="230" />
              <mxPoint x="341" y="230" />
              <mxPoint x="341" y="233" />
            </Array>
          </mxGeometry>
        </mxCell>
        <mxCell id="f0RbP7yOVQny-Da1AAYZ-14" value="Streaming - 4g/wifi" style="edgeLabel;html=1;align=center;verticalAlign=middle;resizable=0;points=[];sketch=1;hachureGap=4;jiggle=2;curveFitting=1;fontFamily=Architects Daughter;fontSource=https%3A%2F%2Ffonts.googleapis.com%2Fcss%3Ffamily%3DArchitects%2BDaughter;textShadow=1;fontSize=16;" parent="f0RbP7yOVQny-Da1AAYZ-13" connectable="0" vertex="1">
          <mxGeometry x="0.1284" y="3" relative="1" as="geometry">
            <mxPoint as="offset" />
          </mxGeometry>
        </mxCell>
        <mxCell id="f0RbP7yOVQny-Da1AAYZ-15" style="edgeStyle=orthogonalEdgeStyle;rounded=0;sketch=1;hachureGap=4;jiggle=2;curveFitting=1;orthogonalLoop=1;jettySize=auto;html=1;fontFamily=Architects Daughter;fontSource=https%3A%2F%2Ffonts.googleapis.com%2Fcss%3Ffamily%3DArchitects%2BDaughter;entryX=0;entryY=0.5;entryDx=0;entryDy=0;textShadow=1;fontSize=16;" parent="1" source="f0RbP7yOVQny-Da1AAYZ-10" target="f0RbP7yOVQny-Da1AAYZ-17" edge="1">
          <mxGeometry relative="1" as="geometry">
            <mxPoint x="460" y="420" as="targetPoint" />
            <Array as="points">
              <mxPoint x="70" y="400" />
            </Array>
          </mxGeometry>
        </mxCell>
        <mxCell id="f0RbP7yOVQny-Da1AAYZ-20" value="FTP Upload - 4G. Wifi" style="edgeLabel;html=1;align=center;verticalAlign=middle;resizable=0;points=[];sketch=1;hachureGap=4;jiggle=2;curveFitting=1;fontFamily=Architects Daughter;fontSource=https%3A%2F%2Ffonts.googleapis.com%2Fcss%3Ffamily%3DArchitects%2BDaughter;" parent="f0RbP7yOVQny-Da1AAYZ-15" connectable="0" vertex="1">
          <mxGeometry x="0.0309" y="6" relative="1" as="geometry">
            <mxPoint as="offset" />
          </mxGeometry>
        </mxCell>
        <mxCell id="f0RbP7yOVQny-Da1AAYZ-10" value="Camera" style="sketch=0;pointerEvents=1;shadow=0;dashed=0;html=1;strokeColor=none;fillColor=#505050;labelPosition=center;verticalLabelPosition=bottom;verticalAlign=top;outlineConnect=0;align=center;shape=mxgraph.office.devices.video_camera;hachureGap=4;jiggle=2;curveFitting=1;fontFamily=Architects Daughter;fontSource=https%3A%2F%2Ffonts.googleapis.com%2Fcss%3Ffamily%3DArchitects%2BDaughter;fontSize=16;" parent="1" vertex="1">
          <mxGeometry x="40" y="280" width="52" height="25" as="geometry" />
        </mxCell>
        <mxCell id="f0RbP7yOVQny-Da1AAYZ-12" value="Streaming server" style="image;html=1;image=img/lib/clip_art/computers/Server_Tower_128x128.png;sketch=1;hachureGap=4;jiggle=2;curveFitting=1;fontFamily=Architects Daughter;fontSource=https%3A%2F%2Ffonts.googleapis.com%2Fcss%3Ffamily%3DArchitects%2BDaughter;textShadow=1;fontSize=16;" parent="1" vertex="1">
          <mxGeometry x="500" y="207" width="80" height="77.5" as="geometry" />
        </mxCell>
        <mxCell id="f0RbP7yOVQny-Da1AAYZ-17" value="FTP Server&lt;div style=&quot;font-size: 16px;&quot;&gt;&lt;br style=&quot;font-size: 16px;&quot;&gt;&lt;/div&gt;" style="image;html=1;image=img/lib/clip_art/computers/Server_Tower_128x128.png;sketch=1;hachureGap=4;jiggle=2;curveFitting=1;fontFamily=Architects Daughter;fontSource=https%3A%2F%2Ffonts.googleapis.com%2Fcss%3Ffamily%3DArchitects%2BDaughter;textShadow=1;fontSize=16;" parent="1" vertex="1">
          <mxGeometry x="500" y="374.5" width="80" height="80" as="geometry" />
        </mxCell>
        <mxCell id="f0RbP7yOVQny-Da1AAYZ-19" value="&lt;h1 style=&quot;margin-top: 0px; font-size: 16px;&quot;&gt;Option 1&lt;/h1&gt;&lt;div style=&quot;font-size: 16px;&quot;&gt;Tự động ghi lại luồng streaming khi có tín hiệu, chia sẻ thư mục capture qua mạng nội bộ&lt;/div&gt;" style="text;html=1;whiteSpace=wrap;overflow=hidden;rounded=0;fontFamily=Architects Daughter;fontSource=https%3A%2F%2Ffonts.googleapis.com%2Fcss%3Ffamily%3DArchitects%2BDaughter;fontSize=16;" parent="1" vertex="1">
          <mxGeometry x="620" y="187" width="180" height="120" as="geometry" />
        </mxCell>
        <mxCell id="f0RbP7yOVQny-Da1AAYZ-21" value="&lt;h1 style=&quot;margin-top: 0px; font-size: 16px;&quot;&gt;&lt;span style=&quot;background-color: initial;&quot;&gt;Option 2&lt;/span&gt;&lt;/h1&gt;&lt;h1 style=&quot;margin-top: 0px; font-size: 16px;&quot;&gt;&lt;span style=&quot;background-color: initial; font-weight: normal;&quot;&gt;Sau khi quay các shot video, phóng viên kết nối 4g hoặc wifi và upload qua setup profile về FTP Server ở thư mục chỉ định sẵn ví dụ:&lt;br&gt;&lt;/span&gt;FTP/CameraPV&lt;/h1&gt;" style="text;html=1;whiteSpace=wrap;overflow=hidden;rounded=0;fontFamily=Architects Daughter;fontSource=https%3A%2F%2Ffonts.googleapis.com%2Fcss%3Ffamily%3DArchitects%2BDaughter;fontSize=16;" parent="1" vertex="1">
          <mxGeometry x="610" y="394.5" width="180" height="190" as="geometry" />
        </mxCell>
      </root>
    </mxGraphModel>
  </diagram>
</mxfile>
